<?xml version="1.0" encoding="UTF-8"?>
<svg id="Capa_1" xmlns="http://www.w3.org/2000/svg" version="1.1" viewBox="0 0 67 65">
  <!-- Generator: Adobe Illustrator 29.0.1, SVG Export Plug-In . SVG Version: 2.1.0 Build 192)  -->
  <defs>
    <style>
      .st0 {
        fill: #0b02ff;
      }

      .st1 {
        fill: none;
        stroke: #0b02ff;
      }
    </style>
  </defs>
  <path class="st0" d="M25.8,10.9c-3.1,0-5.6,2.3-5.9,5.3h-6.2c-.2,0-.4,0-.5.2-.1.1-.2.3-.2.5,0,.4.3.7.7.7h6.2c.3,3,2.9,5.3,5.9,5.3s5.6-2.3,5.9-5.3h21.2c.4,0,.7-.3.7-.7s0-.4-.2-.5c-.1-.1-.3-.2-.5-.2h-21.2c-.3-3-2.9-5.3-5.9-5.3h0ZM25.8,12.2c2.6,0,4.6,2.1,4.6,4.7s-2.1,4.6-4.6,4.6-4.7-2.1-4.7-4.6,2.1-4.6,4.7-4.7ZM40.8,26.3c-3.1,0-5.6,2.3-5.9,5.3H13.6c-.4,0-.7.3-.7.7s0,.4.2.5c.1.1.3.2.5.2h21.2c.3,3,2.9,5.3,5.9,5.3s5.6-2.3,5.9-5.3h6.2c.2,0,.4,0,.5-.2.1-.1.2-.3.2-.5,0-.4-.3-.7-.7-.7h-6.2c-.3-3-2.9-5.3-5.9-5.3h.1ZM40.8,27.6c2.6,0,4.6,2.1,4.6,4.6s-2.1,4.6-4.6,4.6-4.7-2.1-4.7-4.6,2.1-4.6,4.7-4.6ZM25.8,41.5c-3.1,0-5.6,2.3-5.9,5.3h-6.2c-.2,0-.4,0-.5.2-.1.1-.2.3-.2.5,0,.4.3.7.7.7h6.2c.3,3,2.9,5.3,5.9,5.3s5.6-2.3,5.9-5.3h21.2c.4,0,.7-.3.7-.7s0-.4-.2-.5c-.1-.1-.3-.2-.5-.2h-21.2c-.3-3-2.9-5.3-5.9-5.3h0ZM25.8,42.9c2.6,0,4.6,2.1,4.6,4.6s-2.1,4.6-4.6,4.6-4.7-2.1-4.7-4.6,2.1-4.6,4.7-4.6Z"/>
  <rect class="st1" x=".5" y=".5" width="66" height="64" rx="11.5" ry="11.5"/>
</svg>